<svg width="270" height="82" viewBox="0 0 270 82" fill="none" xmlns="http://www.w3.org/2000/svg">
<g clip-path="url(#clip0_48_171)">
<path d="M18.5189 52.8894C13.7707 52.184 9.99939 50.3022 6.78431 47.0339C3.96578 44.1688 2.29967 41.1362 0.953506 36.4211C-0.216789 32.3219 -0.334258 22.8377 0.736917 18.9345C3.09805 10.3309 9.5546 3.20128 16.7334 1.27034C19.1276 0.626342 24.024 0.727298 26.2464 1.46647C27.2864 1.81239 29.3919 2.86956 30.9253 3.81573C34.0012 5.71378 35.0972 5.7621 35.4787 4.01648C35.8836 2.16387 35.9889 2.02442 36.9823 2.02442H37.9642L37.86 9.8069L37.7559 17.5894H36.8278C35.9981 17.5894 35.8476 17.3346 35.4093 15.1878C33.7466 7.04554 25.3882 1.24648 18.2873 3.30852C13.0333 4.83424 9.82028 10.5337 8.72006 20.2796C7.71836 29.1527 8.72429 38.1101 11.3527 43.7231C13.5562 48.4284 16.2865 50.458 20.8024 50.7475C26.0821 51.086 30.0135 49.1081 30.9811 45.6267C31.2134 44.7911 31.4044 42.6015 31.4055 40.7608L31.4078 37.4142L28.4261 37.3019C25.5319 37.193 25.4442 37.1614 25.4442 36.2289V35.2681H35.0627H44.6812V36.2289C44.6812 37.1476 44.5675 37.1947 42.0842 37.3033L39.4872 37.417V41.3594V45.3018L38.2368 46.4916C36.1162 48.5095 32.3976 50.6588 29.2348 51.6946C26.2595 52.6691 20.9903 53.2566 18.5189 52.8894Z" fill="white"/>
<path d="M56.6906 21.1492C55.2828 21.1676 53.9238 21.332 52.8161 21.6536C47.436 23.216 44.6192 29.3444 47.8145 32.5362C48.6335 33.3543 49.0234 33.4681 50.3822 33.2861C52.4492 33.0091 53.3384 31.9341 53.3384 29.7116C53.3384 28.3885 53.1298 27.8407 52.3765 27.1865C50.4978 25.5548 51.6281 24.1173 55.3815 23.3643C57.9455 22.85 60.2925 23.4179 61.3976 24.8213C62.0938 25.7053 62.1874 26.3671 62.1874 30.3849V34.9449H59.3635C56.2877 34.9449 51.5814 35.9894 49.2077 37.1991C45.7692 38.9513 43.8047 42.5215 44.2421 46.2231C44.616 49.387 46.1588 51.2819 49.3211 52.46C51.4116 53.2388 56.4992 52.9662 58.7563 51.9549C59.6912 51.5359 60.9046 50.7702 61.4532 50.2532L62.4511 49.3134L63.0794 50.4063C63.8449 51.7387 66.4609 52.9883 68.5101 52.9997C70.5832 53.0113 73.1463 51.6906 74.1271 50.1053C75.5098 47.8706 74.0596 47.1662 72.1906 49.1648C70.9546 50.4865 69.7045 50.6539 69.1262 49.5746C68.8805 49.116 68.728 44.9419 68.728 38.6785C68.728 32.1435 68.5726 28.0604 68.2921 27.2195C67.6739 25.3659 65.4854 23.2218 63.1906 22.2219C61.5175 21.4928 59.0368 21.1185 56.6906 21.1492ZM60.2825 36.8665H62.1874V41.4213C62.1874 45.5081 62.0982 46.1106 61.3187 47.2822C60.8409 48.0004 59.6785 48.9774 58.736 49.453C56.0524 50.8073 53.2011 50.4858 52.0278 48.6971C51.1816 47.407 50.8629 43.9055 51.4079 41.886C52.3178 38.514 55.2304 36.8665 60.2825 36.8665Z" fill="white"/>
<path d="M114.482 11.6622C112.021 9.20395 113.646 4.71484 116.997 4.71484C118.838 4.71484 120.143 5.62482 120.694 7.29367C122.039 11.3628 117.428 14.6049 114.482 11.6622Z" fill="white"/>
<path d="M102.917 0.953107C102.673 0.963368 102.255 1.13833 101.846 1.41624C101.086 1.93165 99.7679 2.13533 96.236 2.28246C91.6192 2.4748 91.6191 2.47463 91.6191 3.43542C91.6191 4.35416 91.7328 4.4009 94.2161 4.50957L96.8131 4.62366V27.6333V50.6437L94.12 50.7713C93.4776 50.8018 92.6509 50.8161 91.8078 50.8201V52.9999H108.101V50.7308L105.855 50.7068H103.354V25.9819C103.354 12.3834 103.238 1.14206 103.096 1.0004C103.06 0.964962 102.998 0.949679 102.917 0.953107Z" fill="white"/>
<path d="M90.9836 52.9998V50.82C90.1628 50.8154 89.36 50.8009 88.7338 50.7712L86.0406 50.6436V25.8865C86.0406 8.61987 85.9163 1.12939 85.6303 1.12939C85.4048 1.12939 84.8421 1.34557 84.3799 1.60979C83.9104 1.87819 81.5872 2.175 79.1152 2.28235L74.6907 2.47451L74.569 3.53139L74.4473 4.58827H76.9736H79.5V27.6475V50.7067H76.9992H74.4984V51.8536V52.9998H90.9836Z" fill="white"/>
<path d="M120.282 21.8599L118.84 22.4986C117.916 22.9077 115.806 23.2205 112.972 23.3686C108.882 23.5824 108.548 23.6578 108.548 24.3685C108.548 25.05 108.842 25.1497 111.145 25.2504L113.742 25.3645V38.0291V50.6944H111.241H108.912L108.91 52.9875L124.99 52.9072V50.8055C124.271 50.7993 123.566 50.7859 122.993 50.7589L120.282 50.6313V36.2456L120.282 21.8599ZM147.114 21.8704C143.667 21.8704 141.911 22.5483 139.616 24.7663L137.596 26.7179L137.553 25.351C137.53 24.5992 137.542 23.595 137.581 23.1194C137.66 22.1429 136.553 21.913 135.73 22.7351C135.413 23.0515 133.615 23.262 130.459 23.3514C125.699 23.4861 125.669 23.4927 125.669 24.4082C125.669 25.2859 125.787 25.3293 128.17 25.3293H130.67V37.9788L130.719 50.7504L125.815 50.81V52.9755L142.356 52.9778L142.357 50.7722L137.635 50.7053L137.572 31.4369L138.808 29.1227C139.487 27.85 140.66 26.2986 141.416 25.6751C143.975 23.5635 147.291 23.3666 148.765 25.239C149.483 26.1505 149.523 26.8466 149.523 38.4477V50.6942H147.022H144.521V51.8471V53.0001H152.793H161.065V51.8471V50.6942H158.545H156.025L156.141 41.3744C156.256 32.066 156.257 32.0519 157.326 29.8778C160.001 24.4366 164.982 22.2563 167.388 25.4732C168.146 26.4874 168.188 27.0973 168.294 38.5979L168.406 50.6581L163.181 50.7148V52.8079H171.645L180.281 52.8423L180.295 50.7215L174.915 50.6589L174.913 39.8199C174.912 33.3642 174.746 28.3864 174.503 27.5119C173.924 25.4309 171.772 23.2038 169.636 22.4767C167.188 21.6435 163.193 21.7032 161.257 22.6013C159.547 23.3946 158.55 24.2581 156.997 26.2921L155.952 27.6613L155.288 26.2073C153.973 23.3229 151.237 21.8704 147.114 21.8704Z" fill="white"/>
<path d="M265.124 0C265.011 0 264.456 0.302652 263.893 0.67256C263.122 1.17837 261.766 1.39276 258.424 1.53728L253.98 1.72944L253.858 2.78632L253.736 3.8432H256.263H258.789V14.972V26.1007L257.022 24.2137C254.705 21.7392 252.711 20.9736 249.23 21.2224C245.987 21.4542 243.229 22.8403 241.011 25.3524C235.083 32.0652 234.981 42.3675 240.78 48.6517C242.681 50.712 244.53 51.8898 246.843 52.513C250.914 53.6096 254.558 52.8416 257.167 50.3376L258.746 48.8221L258.863 50.4487L258.981 52.0753L264.49 52.1819L270 52.2893L269.981 49.9695L265.33 49.9233V24.9613C265.33 11.2324 265.237 0 265.124 0ZM250.271 23.1613C252.027 23.2523 253.871 24.1796 255.555 25.9056C258.397 28.8195 258.789 30.2708 258.789 37.8803C258.789 43.9523 258.762 44.1609 257.715 46.1642C257.048 47.4392 256.019 48.6549 255.005 49.3671C253.645 50.3218 252.935 50.5323 250.789 50.6184C247.825 50.7372 246.909 50.4394 245.762 48.9828C244.289 47.1116 243.995 45.1781 243.988 37.279C243.98 28.6948 244.47 26.1508 246.451 24.4854C247.593 23.5255 248.906 23.0904 250.271 23.1613Z" fill="white"/>
<path d="M212.75 50.9122L212.748 52.9998L220.559 52.964L229.356 52.9817V52.0209L229.314 50.9475L223.393 50.8357L223.399 42.8768C223.406 32.5435 224.001 29.7708 226.92 26.4494C227.582 25.6959 228.63 24.8183 229.247 24.4992C230.329 23.9403 230.355 23.9467 229.96 24.6854C229.297 25.9221 229.467 28.3914 230.284 29.3993C230.878 30.1313 231.367 30.2995 232.812 30.2693C235.019 30.2231 236.065 29.3044 236.353 27.1587C236.759 24.1373 234.7 22.0439 231.324 22.0439C228.348 22.0439 226.743 22.9838 224.495 26.041L223.393 27.54V25.0479C223.393 23.6775 223.284 22.4482 223.152 22.3157C223.019 22.1832 222.37 22.3617 221.709 22.7128C220.869 23.159 219.118 23.4149 215.89 23.5625C211.6 23.7585 211.273 23.8278 211.273 24.542C211.273 25.2296 211.568 25.3223 214.063 25.4233L216.852 25.5366V38.2019V50.8679L212.75 50.9122Z" fill="white"/>
<path d="M194.537 21.1406C187.91 21.1406 183.388 24.7766 183.864 29.7233C184.075 31.9211 185.39 33.4389 187.081 33.4389C190.495 33.4389 191.882 29.8261 189.506 27.1231L188.323 25.7765L189.258 24.8427C190.379 23.7225 193.868 22.9022 195.895 23.2822C196.669 23.4272 197.763 23.9407 198.325 24.4231C199.328 25.2843 199.347 25.3863 199.347 30.0423V34.784L195.643 35.0257C186.639 35.613 181.473 39.308 181.473 45.1606C181.473 48.6954 183.379 51.4671 186.513 52.4905C188.832 53.2479 193.888 52.9818 196.108 51.9853C197.043 51.5656 198.226 50.7676 198.737 50.2123L199.667 49.2027L200.381 50.3745C201.678 52.5064 205.613 53.6317 208.267 52.6301C208.863 52.4053 209.837 51.7571 210.433 51.1896C210.467 51.1569 210.481 51.1554 210.514 51.1251L211.93 49.572L210.516 48.2497C209.908 48.8838 207.965 50.3489 207.624 50.3489C206.162 50.3489 206.079 49.7315 206.079 38.8238C206.079 28.5912 206.049 28.1617 205.214 26.5121C203.526 23.1803 199.472 21.1406 194.537 21.1406ZM197.634 36.8977H199.539V41.1635C199.539 46.1678 199.04 47.5986 196.776 49.0954C195.163 50.1618 192.245 50.5954 190.809 49.9819C189.498 49.422 188.714 47.8902 188.496 45.4624C187.977 39.6884 190.954 36.8977 197.634 36.8977Z" fill="white"/>
</g>
<path d="M24.312 78H23.388V69.432H20.336V68.62H27.364V69.432H24.312V78ZM30.0528 78.14C28.2048 78.14 26.9168 76.768 26.9168 74.64C26.9168 72.512 28.2048 71.14 30.0528 71.14C31.9008 71.14 33.2028 72.512 33.2028 74.64C33.2028 76.768 31.9008 78.14 30.0528 78.14ZM30.0528 77.356C31.3828 77.356 32.2788 76.418 32.2788 74.64C32.2788 72.848 31.3828 71.896 30.0528 71.896C28.7368 71.896 27.8408 72.848 27.8408 74.64C27.8408 76.418 28.7368 77.356 30.0528 77.356ZM36.9719 78.14C35.6559 78.14 34.7739 77.356 34.7739 75.802V71.28H35.6839V75.606C35.6839 76.684 36.1879 77.356 37.3359 77.356C38.7919 77.356 39.3519 76.334 39.3519 75.158V71.28H40.2619V78H39.3519V76.082C39.1139 77.202 38.3579 78.14 36.9719 78.14ZM44.597 78.14C43.225 78.14 41.937 77.524 41.531 76.208L42.217 75.69C42.427 76.6 43.267 77.356 44.625 77.356C45.521 77.356 46.109 76.992 46.109 76.292C46.109 75.592 45.507 75.34 44.597 75.13L43.687 74.92C42.721 74.682 41.727 74.234 41.727 73.03C41.727 71.868 42.651 71.14 44.037 71.14C45.465 71.14 46.403 71.854 46.739 72.806L46.039 73.324C45.731 72.414 45.031 71.91 43.981 71.91C43.169 71.91 42.595 72.288 42.595 72.988C42.595 73.688 43.099 73.94 44.079 74.178L44.975 74.402C46.375 74.752 46.935 75.326 46.935 76.278C46.935 77.566 45.843 78.14 44.597 78.14ZM53.972 78.154C52.222 78.154 51.172 76.768 51.172 74.64C51.172 72.526 52.222 71.14 53.972 71.14C55.302 71.14 56.016 72.064 56.226 73.128V68.62H57.136V78H56.226V76.166C56.016 77.23 55.302 78.154 53.972 78.154ZM52.11 74.64C52.11 76.53 53.034 77.384 54.252 77.384C55.61 77.384 56.226 76.39 56.226 75.27V74.01C56.226 72.89 55.61 71.91 54.252 71.91C53.034 71.91 52.11 72.764 52.11 74.64ZM60.0212 78H59.0972V71.28H60.0212V73.114C60.2732 72.05 61.0152 71.126 62.1632 71.126C62.9472 71.126 63.5912 71.63 63.5912 72.554C63.5912 73.058 63.4652 73.478 63.3392 73.702H62.3452C62.5272 73.492 62.6952 73.058 62.6952 72.652C62.6952 72.218 62.4432 71.826 61.8272 71.826C60.8192 71.826 60.0212 72.946 60.0212 74.108V78ZM67.3223 78.14C65.4743 78.14 64.1863 76.768 64.1863 74.64C64.1863 72.512 65.4743 71.14 67.3223 71.14C69.1703 71.14 70.4723 72.512 70.4723 74.64C70.4723 76.768 69.1703 78.14 67.3223 78.14ZM67.3223 77.356C68.6523 77.356 69.5483 76.418 69.5483 74.64C69.5483 72.848 68.6523 71.896 67.3223 71.896C66.0063 71.896 65.1103 72.848 65.1103 74.64C65.1103 76.418 66.0063 77.356 67.3223 77.356ZM73.0368 70.076H72.1128V68.62H73.0368V70.076ZM73.0368 78H72.1128V71.28H73.0368V78ZM77.1956 78.154C76.1736 78.154 75.3756 77.51 75.3756 76.292V71.994H74.2836V71.28H75.3756V70.314L76.2856 69.628V71.28H78.5396V71.994H76.2856V76.04C76.2856 77.006 76.7896 77.272 77.3776 77.272C77.9796 77.272 78.4696 76.838 78.6936 76.362L79.0156 77.258C78.7216 77.748 78.0636 78.154 77.1956 78.154ZM82.5228 78.14C81.1508 78.14 79.8628 77.524 79.4568 76.208L80.1428 75.69C80.3528 76.6 81.1928 77.356 82.5508 77.356C83.4468 77.356 84.0348 76.992 84.0348 76.292C84.0348 75.592 83.4328 75.34 82.5228 75.13L81.6128 74.92C80.6468 74.682 79.6528 74.234 79.6528 73.03C79.6528 71.868 80.5768 71.14 81.9628 71.14C83.3908 71.14 84.3288 71.854 84.6648 72.806L83.9648 73.324C83.6568 72.414 82.9568 71.91 81.9068 71.91C81.0948 71.91 80.5208 72.288 80.5208 72.988C80.5208 73.688 81.0248 73.94 82.0048 74.178L82.9008 74.402C84.3008 74.752 84.8608 75.326 84.8608 76.278C84.8608 77.566 83.7688 78.14 82.5228 78.14ZM90.4138 78H89.4898V71.28H90.4138V73.114C90.6658 72.05 91.4078 71.126 92.5558 71.126C93.3398 71.126 93.9838 71.63 93.9838 72.554C93.9838 73.058 93.8578 73.478 93.7318 73.702H92.7378C92.9198 73.492 93.0878 73.058 93.0878 72.652C93.0878 72.218 92.8358 71.826 92.2198 71.826C91.2118 71.826 90.4138 72.946 90.4138 74.108V78ZM98.0789 70.342H97.2109L98.4709 68.69H99.6749L98.0789 70.342ZM97.8409 78.14C95.9649 78.14 94.6629 76.866 94.6629 74.64C94.6629 72.456 95.9089 71.14 97.7289 71.14C99.5629 71.14 100.711 72.372 100.711 74.402C100.711 74.57 100.683 74.738 100.669 74.85H95.5449C95.6009 76.53 96.5109 77.37 97.8409 77.37C99.1989 77.37 99.7869 76.628 100.081 75.97L100.641 76.628C100.165 77.454 99.2689 78.14 97.8409 78.14ZM97.7289 71.896C96.4969 71.896 95.6849 72.666 95.5589 74.178H99.8709C99.7869 72.666 98.9609 71.896 97.7289 71.896ZM104.808 78.14C103.436 78.14 102.148 77.524 101.742 76.208L102.428 75.69C102.638 76.6 103.478 77.356 104.836 77.356C105.732 77.356 106.32 76.992 106.32 76.292C106.32 75.592 105.718 75.34 104.808 75.13L103.898 74.92C102.932 74.682 101.938 74.234 101.938 73.03C101.938 71.868 102.862 71.14 104.248 71.14C105.676 71.14 106.614 71.854 106.95 72.806L106.25 73.324C105.942 72.414 105.242 71.91 104.192 71.91C103.38 71.91 102.806 72.288 102.806 72.988C102.806 73.688 103.31 73.94 104.29 74.178L105.186 74.402C106.586 74.752 107.146 75.326 107.146 76.278C107.146 77.566 106.054 78.14 104.808 78.14ZM111.362 78.14C109.486 78.14 108.184 76.866 108.184 74.64C108.184 72.456 109.43 71.14 111.25 71.14C113.084 71.14 114.232 72.372 114.232 74.402C114.232 74.57 114.204 74.738 114.19 74.85H109.066C109.122 76.53 110.032 77.37 111.362 77.37C112.72 77.37 113.308 76.628 113.602 75.97L114.162 76.628C113.686 77.454 112.79 78.14 111.362 78.14ZM111.25 71.896C110.018 71.896 109.206 72.666 109.08 74.178H113.392C113.308 72.666 112.482 71.896 111.25 71.896ZM116.773 78H115.849V71.28H116.773V73.114C117.025 72.05 117.767 71.126 118.915 71.126C119.699 71.126 120.343 71.63 120.343 72.554C120.343 73.058 120.217 73.478 120.091 73.702H119.097C119.279 73.492 119.447 73.058 119.447 72.652C119.447 72.218 119.195 71.826 118.579 71.826C117.571 71.826 116.773 72.946 116.773 74.108V78ZM124.351 78H123.203L120.669 71.28H121.677L123.133 75.368L123.805 77.3L124.449 75.368L125.905 71.28H126.885L124.351 78ZM130.741 70.342H129.873L131.133 68.69H132.337L130.741 70.342ZM130.503 78.14C128.627 78.14 127.325 76.866 127.325 74.64C127.325 72.456 128.571 71.14 130.391 71.14C132.225 71.14 133.373 72.372 133.373 74.402C133.373 74.57 133.345 74.738 133.331 74.85H128.207C128.263 76.53 129.173 77.37 130.503 77.37C131.861 77.37 132.449 76.628 132.743 75.97L133.303 76.628C132.827 77.454 131.931 78.14 130.503 78.14ZM130.391 71.896C129.159 71.896 128.347 72.666 128.221 74.178H132.533C132.449 72.666 131.623 71.896 130.391 71.896ZM137.47 78.14C136.098 78.14 134.81 77.524 134.404 76.208L135.09 75.69C135.3 76.6 136.14 77.356 137.498 77.356C138.394 77.356 138.982 76.992 138.982 76.292C138.982 75.592 138.38 75.34 137.47 75.13L136.56 74.92C135.594 74.682 134.6 74.234 134.6 73.03C134.6 71.868 135.524 71.14 136.91 71.14C138.338 71.14 139.276 71.854 139.612 72.806L138.912 73.324C138.604 72.414 137.904 71.91 136.854 71.91C136.042 71.91 135.468 72.288 135.468 72.988C135.468 73.688 135.972 73.94 136.952 74.178L137.848 74.402C139.248 74.752 139.808 75.326 139.808 76.278C139.808 77.566 138.716 78.14 137.47 78.14ZM148.385 77.384C146.131 77.384 144.437 75.564 144.437 73.31C144.437 71.056 146.131 69.222 148.385 69.222C150.611 69.222 152.291 71.056 152.291 73.31C152.291 75.564 150.611 77.384 148.385 77.384ZM148.385 76.726C150.247 76.726 151.633 75.214 151.633 73.296C151.633 71.406 150.247 69.88 148.371 69.88C146.495 69.88 145.095 71.406 145.095 73.296C145.095 75.214 146.495 76.726 148.385 76.726ZM148.427 75.816C147.013 75.816 146.103 74.738 146.103 73.268C146.103 71.826 147.013 70.734 148.427 70.734C149.561 70.734 150.289 71.392 150.597 72.302L150.051 72.82C149.869 71.966 149.309 71.406 148.427 71.406C147.475 71.406 146.845 72.022 146.845 73.268C146.845 74.514 147.475 75.144 148.427 75.144C149.309 75.144 149.869 74.584 150.051 73.73L150.597 74.262C150.289 75.144 149.547 75.816 148.427 75.816ZM160.736 78.112C158.258 78.112 156.872 76.138 156.872 73.296C156.872 70.524 158.412 68.48 161.142 68.48C163.144 68.48 164.46 69.558 165.006 71.266L164.208 71.812C163.844 70.398 162.892 69.334 161.142 69.334C158.944 69.334 157.838 70.986 157.838 73.296C157.838 75.606 158.916 77.258 161.016 77.258C162.92 77.258 163.704 76.096 164.068 74.22H160.946V73.394H165.048V78H164.502L164.194 74.22C164.054 76.502 162.892 78.112 160.736 78.112ZM168.312 78.14C167.206 78.14 166.576 77.538 166.576 76.642C166.576 75.76 167.234 75.2 168.172 74.78L170.72 73.618V73.562C170.72 72.554 170.244 71.966 169.152 71.966C168.144 71.966 167.416 72.54 167.066 73.282L166.422 72.638C166.842 71.938 167.822 71.14 169.25 71.14C170.818 71.14 171.63 72.05 171.63 73.548V76.698C171.63 77.048 171.784 77.174 172.106 77.174H172.498V78H171.868C171.196 78 170.748 77.706 170.748 76.852V76.138C170.524 77.104 169.656 78.14 168.312 78.14ZM167.5 76.516C167.5 77.076 167.92 77.37 168.578 77.37C169.824 77.37 170.748 76.404 170.748 75.494V74.304L168.564 75.34C167.836 75.676 167.5 76.012 167.5 76.516ZM174.906 78H173.982V68.62H174.906V78ZM177.791 78H176.867V68.62H177.791V78ZM180.675 70.076H179.751V68.62H180.675V70.076ZM180.675 78H179.751V71.28H180.675V78ZM183.56 78H182.636V71.28H183.56V73.156C183.798 72.05 184.54 71.14 185.786 71.14C187.004 71.14 187.718 71.826 187.788 73.184C188.012 72.078 188.782 71.14 190.042 71.14C191.33 71.14 192.058 71.91 192.058 73.45V78H191.134V73.66C191.134 72.484 190.616 71.91 189.58 71.91C188.376 71.91 187.802 72.946 187.802 74.108V78H186.892V73.66C186.892 72.484 186.374 71.91 185.324 71.91C184.134 71.91 183.56 72.946 183.56 74.108V78ZM195.314 78.14C194.208 78.14 193.578 77.538 193.578 76.642C193.578 75.76 194.236 75.2 195.174 74.78L197.722 73.618V73.562C197.722 72.554 197.246 71.966 196.154 71.966C195.146 71.966 194.418 72.54 194.068 73.282L193.424 72.638C193.844 71.938 194.824 71.14 196.252 71.14C197.82 71.14 198.632 72.05 198.632 73.548V76.698C198.632 77.048 198.786 77.174 199.108 77.174H199.5V78H198.87C198.198 78 197.75 77.706 197.75 76.852V76.138C197.526 77.104 196.658 78.14 195.314 78.14ZM194.502 76.516C194.502 77.076 194.922 77.37 195.58 77.37C196.826 77.37 197.75 76.404 197.75 75.494V74.304L195.566 75.34C194.838 75.676 194.502 76.012 194.502 76.516ZM201.908 78H200.984V71.28H201.908V73.114C202.16 72.05 202.902 71.126 204.05 71.126C204.834 71.126 205.478 71.63 205.478 72.554C205.478 73.058 205.352 73.478 205.226 73.702H204.232C204.414 73.492 204.582 73.058 204.582 72.652C204.582 72.218 204.33 71.826 203.714 71.826C202.706 71.826 201.908 72.946 201.908 74.108V78ZM208.929 78.154C207.179 78.154 206.129 76.768 206.129 74.64C206.129 72.526 207.179 71.14 208.929 71.14C210.259 71.14 210.973 72.064 211.183 73.128V68.62H212.093V78H211.183V76.166C210.973 77.23 210.259 78.154 208.929 78.154ZM207.067 74.64C207.067 76.53 207.991 77.384 209.209 77.384C210.567 77.384 211.183 76.39 211.183 75.27V74.01C211.183 72.89 210.567 71.91 209.209 71.91C207.991 71.91 207.067 72.764 207.067 74.64ZM223.486 78H217.298V77.286L220.56 74.038C221.526 73.072 222.352 72.176 222.352 71.07C222.352 70.202 221.848 69.362 220.574 69.362C218.866 69.362 217.97 70.482 218.208 72.358L217.354 71.812C217.158 69.964 218.488 68.48 220.63 68.48C222.45 68.48 223.29 69.586 223.29 71.014C223.29 72.526 221.946 73.828 221.106 74.64L219.272 76.418L218.32 77.244L219.496 77.188H223.486V78ZM228.436 78.14C225.916 78.14 224.74 76.026 224.74 73.296C224.74 70.594 225.916 68.48 228.436 68.48C230.956 68.48 232.146 70.594 232.146 73.296C232.146 76.026 230.956 78.14 228.436 78.14ZM228.45 77.272C230.438 77.272 231.194 75.578 231.194 73.296C231.194 71.042 230.438 69.334 228.45 69.334C226.462 69.334 225.692 71.042 225.692 73.296C225.692 75.578 226.462 77.272 228.45 77.272ZM239.811 78H233.623V77.286L236.885 74.038C237.851 73.072 238.677 72.176 238.677 71.07C238.677 70.202 238.173 69.362 236.899 69.362C235.191 69.362 234.295 70.482 234.533 72.358L233.679 71.812C233.483 69.964 234.813 68.48 236.955 68.48C238.775 68.48 239.615 69.586 239.615 71.014C239.615 72.526 238.271 73.828 237.431 74.64L235.597 76.418L234.645 77.244L235.821 77.188H239.811V78ZM244.635 78.14C242.633 78.14 241.429 76.992 241.135 75.522L241.905 74.836C242.171 76.32 242.983 77.272 244.747 77.272C246.091 77.272 246.917 76.628 246.917 75.508C246.917 74.206 245.937 73.688 244.453 73.688H242.955V72.904H244.467C245.839 72.904 246.539 72.33 246.539 71.21C246.539 70.16 245.895 69.362 244.551 69.362C243.249 69.362 242.297 70.09 242.101 71.434L241.331 70.762C241.695 69.474 242.885 68.48 244.565 68.48C246.665 68.48 247.505 69.768 247.505 71.028C247.505 72.008 246.833 72.988 245.503 73.184C247.281 73.352 247.883 74.402 247.883 75.592C247.883 77.132 246.637 78.14 244.635 78.14Z" fill="white"/>
<defs>
<clipPath id="clip0_48_171">
<rect width="270" height="53" fill="white"/>
</clipPath>
</defs>
</svg>
